<svg width="40" height="41" viewBox="0 0 40 41" fill="none" xmlns="http://www.w3.org/2000/svg">
<path d="M20 0.176514C8.95468 0.176514 0 9.13078 0 20.1765C0 31.2222 8.95468 40.1765 20 40.1765C31.0453 40.1765 40 31.2222 40 20.1765C40 9.13078 31.0453 0.176514 20 0.176514ZM30.1451 22.3396C31.0772 23.2501 32.0634 24.1069 32.9003 25.1116C33.271 25.556 33.6205 26.0155 33.8864 26.5323C34.2662 27.2693 33.9233 28.0775 33.2636 28.1213L29.1662 28.1205C28.108 28.208 27.2659 27.7812 26.5559 27.0577C25.9892 26.4812 25.4633 25.8653 24.9174 25.2691C24.6944 25.0244 24.4595 24.794 24.1796 24.6127C23.6211 24.2494 23.1358 24.3607 22.8158 24.9442C22.4896 25.5379 22.4151 26.1959 22.384 26.8568C22.3394 27.823 22.0481 28.0754 21.0787 28.1209C19.0073 28.2178 17.0418 27.9036 15.2151 26.8593C13.6037 25.9382 12.3564 24.6381 11.2696 23.1662C9.15315 20.2968 7.53228 17.1476 6.07591 13.9079C5.74813 13.1783 5.98793 12.7879 6.79284 12.7727C8.13013 12.7469 9.46742 12.7502 10.8047 12.7715C11.349 12.7801 11.7091 13.0915 11.9182 13.6051C12.6408 15.3831 13.5268 17.0747 14.6369 18.6436C14.9328 19.0614 15.2348 19.478 15.6649 19.773C16.1395 20.0988 16.5013 19.9911 16.7251 19.4612C16.8683 19.1244 16.9301 18.7643 16.9612 18.4034C17.0676 17.1672 17.0803 15.9314 16.8962 14.7001C16.7816 13.9296 16.3482 13.432 15.5802 13.2863C15.189 13.2122 15.2462 13.0674 15.4365 12.8439C15.7668 12.4576 16.0761 12.2187 16.6944 12.2187L21.3238 12.2178C22.0534 12.3611 22.2171 12.6884 22.3161 13.4234L22.3202 18.5679C22.3116 18.8523 22.463 19.6953 22.9737 19.8815C23.3829 20.0165 23.653 19.6883 23.8977 19.4293C25.0079 18.2512 25.7989 16.8607 26.5072 15.4215C26.8198 14.7868 27.0895 14.1301 27.3514 13.4721C27.5462 12.9855 27.849 12.7461 28.3982 12.7543L32.8561 12.7596C32.9874 12.7596 33.1208 12.7609 33.2509 12.7834C34.0023 12.9119 34.2081 13.2351 33.9757 13.968C33.6098 15.1195 32.899 16.0787 32.2042 17.0403C31.4594 18.0699 30.6652 19.0635 29.9278 20.0975C29.2501 21.0428 29.3037 21.5187 30.1451 22.3396Z" fill="#333333"/>
</svg>
