<svg width="40" height="41" viewBox="0 0 40 41" fill="none" xmlns="http://www.w3.org/2000/svg">
<path d="M20 0.176514C8.95599 0.176514 0 9.13251 0 20.1765C0 31.2205 8.95599 40.1765 20 40.1765C31.044 40.1765 40 31.2205 40 20.1765C40 9.13251 31.044 0.176514 20 0.176514ZM20.4239 31.8211C20.4236 31.8211 20.4242 31.8211 20.4239 31.8211H20.419C18.4155 31.8202 16.4468 31.3179 14.6985 30.3645L8.35297 32.0286L10.0513 25.8275C9.0036 24.0129 8.45245 21.9542 8.45337 19.8451C8.45612 13.2472 13.826 7.87946 20.4239 7.87946C23.6258 7.88068 26.6315 9.12701 28.8913 11.3887C31.1514 13.6506 32.3953 16.6572 32.3941 19.8546C32.3914 26.4528 27.0209 31.8211 20.4239 31.8211Z" fill="#333333"/>
<path d="M20.4282 9.90063C14.9402 9.90063 10.4771 14.362 10.4746 19.846C10.474 21.7253 11.0001 23.5554 11.9959 25.139L12.2324 25.5153L11.2272 29.1856L14.9927 28.1981L15.3562 28.4135C16.8836 29.3199 18.6347 29.7993 20.42 29.7999H20.424C25.9077 29.7999 30.3708 25.3383 30.3733 19.8539C30.3742 17.1962 29.3403 14.6974 27.4619 12.8175C25.5836 10.9376 23.0854 9.90155 20.4282 9.90063ZM26.2803 24.1221C26.0309 24.8204 24.8362 25.4579 24.2615 25.5439C23.7461 25.6208 23.0942 25.6529 22.3777 25.4255C21.9431 25.2876 21.3862 25.1036 20.6724 24.7957C17.6722 23.5005 15.7126 20.4805 15.5631 20.2809C15.4136 20.0813 14.3418 18.6595 14.3418 17.1876C14.3418 15.7161 15.1145 14.9925 15.3886 14.6934C15.6629 14.394 15.987 14.3193 16.1863 14.3193C16.3856 14.3193 16.5851 14.3211 16.7594 14.3297C16.9431 14.3388 17.1897 14.2598 17.4323 14.843C17.6816 15.4417 18.2798 16.9133 18.3546 17.0628C18.4293 17.2126 18.4791 17.3872 18.3796 17.5868C18.2798 17.7864 17.9484 18.217 17.6319 18.6094C17.4991 18.7739 17.3261 18.9204 17.5007 19.2198C17.6749 19.5189 18.2755 20.4982 19.1645 21.291C20.3071 22.3097 21.2708 22.6252 21.5699 22.7751C21.8687 22.9246 22.0432 22.8996 22.2178 22.7003C22.392 22.5007 22.9655 21.8272 23.1647 21.5278C23.364 21.2285 23.5636 21.2785 23.8376 21.3783C24.112 21.4778 25.5823 22.2014 25.8814 22.3509C26.1805 22.5007 26.3798 22.5755 26.4545 22.7003C26.5296 22.8251 26.5296 23.4236 26.2803 24.1221Z" fill="#333333"/>
</svg>
