<svg width="40" height="41" viewBox="0 0 40 41" fill="none" xmlns="http://www.w3.org/2000/svg">
<path d="M17.5088 23.9233L24.0145 20.1764L17.5088 16.4294V23.9233Z" fill="#333333"/>
<path d="M20 0.176514C8.95599 0.176514 0 9.13251 0 20.1765C0 31.2205 8.95599 40.1765 20 40.1765C31.044 40.1765 40 31.2205 40 20.1765C40 9.13251 31.044 0.176514 20 0.176514ZM32.4969 20.197C32.4969 20.197 32.4969 24.2531 31.9824 26.2089C31.694 27.2795 30.8499 28.1236 29.7794 28.4117C27.8235 28.9265 20 28.9265 20 28.9265C20 28.9265 12.197 28.9265 10.2206 28.3912C9.15009 28.1031 8.30597 27.2587 8.01758 26.1882C7.50275 24.2531 7.50275 20.1765 7.50275 20.1765C7.50275 20.1765 7.50275 16.1207 8.01758 14.1649C8.30566 13.0943 9.17053 12.2294 10.2206 11.9413C12.1765 11.4265 20 11.4265 20 11.4265C20 11.4265 27.8235 11.4265 29.7794 11.9618C30.8499 12.2499 31.694 13.0943 31.9824 14.1649C32.5177 16.1207 32.4969 20.197 32.4969 20.197Z" fill="#333333"/>
</svg>
