<svg width="100" height="100" viewBox="0 0 100 100" fill="none" xmlns="http://www.w3.org/2000/svg">
<path d="M16.6155 88.8538C16.2524 88.4903 15.7485 88.2815 15.2349 88.2815C14.7212 88.2815 14.2173 88.4903 13.854 88.8538C13.4907 89.2172 13.2817 89.7209 13.2817 90.2346C13.2817 90.7483 13.4905 91.2522 13.854 91.6153C14.2173 91.9786 14.7212 92.1877 15.2349 92.1877C15.7485 92.1877 16.2524 91.9788 16.6155 91.6153C16.9788 91.2522 17.188 90.7483 17.188 90.2346C17.188 89.7209 16.979 89.217 16.6155 88.8538Z" fill="#E40000"/>
<path d="M91.7036 35.73C91.3403 35.3665 90.8384 35.1577 90.3228 35.1577C89.8091 35.1577 89.3052 35.3665 88.9419 35.73C88.5788 36.0933 88.3696 36.5972 88.3696 37.1108C88.3696 37.6245 88.5786 38.1284 88.9419 38.4915C89.3052 38.8548 89.8091 39.064 90.3228 39.064C90.8384 39.064 91.3403 38.855 91.7036 38.4915C92.0686 38.1284 92.2776 37.6245 92.2776 37.1108C92.2776 36.5972 92.0686 36.0933 91.7036 35.73Z" fill="#E40000"/>
<path d="M99.4269 0.57207C99.0605 0.205859 98.5636 0 98.0454 0L49.9997 0.00253906C48.9212 0.00253906 48.0468 0.877148 48.0468 1.95566V7.54102L29.5333 12.5018C28.4913 12.7811 27.8729 13.852 28.1522 14.8937L37.7474 50.7027L29.4468 59.0033C28.3903 57.4607 26.6165 56.4463 24.6101 56.4463H5.86064C2.62979 56.4463 0.00146484 59.0748 0.00146484 62.3055V94.1406C0.00146484 97.3715 2.62979 100 5.86064 100H24.6103C27.355 100 29.664 98.1023 30.2968 95.5508L32.619 97.576C34.4118 99.1393 36.7087 100 39.0874 100H98.0458C99.1243 100 99.9989 99.1256 99.9989 98.0471V1.95312C99.9985 1.43516 99.7931 0.938281 99.4269 0.57207ZM26.563 94.1408C26.563 95.2176 25.6868 96.0939 24.6099 96.0939H5.86045C4.7835 96.0939 3.90732 95.2178 3.90732 94.1408V62.3057C3.90732 61.2287 4.7835 60.3525 5.86045 60.3525H13.2821V82.8516C13.2821 83.9301 14.1567 84.8047 15.2353 84.8047C16.3138 84.8047 17.1884 83.9301 17.1884 82.8516V60.3525H24.6101C25.687 60.3525 26.5632 61.2287 26.5632 62.3057V94.1408H26.563ZM32.4308 15.7693L48.0468 11.585V18.8223L46.7378 19.173C46.2372 19.3072 45.8108 19.6344 45.5519 20.083C45.2929 20.5316 45.2226 21.0646 45.3567 21.565C46.1073 24.366 44.4392 27.2553 41.6382 28.0059C41.1372 28.1402 40.7101 28.468 40.4513 28.9176C40.1925 29.367 40.1228 29.901 40.2581 30.4018L47.8712 58.5928H43.9513L41.9312 50.6897C41.8669 50.4381 41.7544 50.2062 41.6038 50.0047L32.4308 15.7693ZM48.0468 27.7791V44.2598L44.4845 31.0693C45.9726 30.301 47.1903 29.1514 48.0468 27.7791ZM76.1062 96.0938H39.087C37.6524 96.0938 36.2671 95.5746 35.1858 94.6318L30.4692 90.5184V63.5053L38.9962 54.9783L40.5427 61.0291C40.7638 61.8937 41.5425 62.4984 42.4349 62.4984L80.8341 62.5008C82.3419 62.5008 83.5685 63.7273 83.5685 65.2352C83.5685 66.743 82.3419 67.9695 80.8341 67.9695H61.1583C60.0798 67.9695 59.2052 68.8441 59.2052 69.9227C59.2052 71.0012 60.0798 71.8758 61.1583 71.8758H86.9474C88.4552 71.8758 89.6817 73.1023 89.6817 74.6102C89.6817 76.118 88.4552 77.3445 86.9474 77.3445H61.1583C60.0798 77.3445 59.2052 78.2191 59.2052 79.2977C59.2052 80.3762 60.0798 81.2508 61.1583 81.2508H82.7683C84.2761 81.2508 85.5026 82.4773 85.5026 83.9852C85.5026 85.493 84.2761 86.7195 82.7683 86.7195H61.1583C60.0798 86.7195 59.2052 87.5941 59.2052 88.6727C59.2052 89.7512 60.0798 90.6258 61.1583 90.6258H76.1062C77.614 90.6258 78.8405 91.8523 78.8405 93.3602C78.8403 94.8672 77.6138 96.0938 76.1062 96.0938ZM96.0927 96.0938H96.0925H82.1552C82.5339 95.2592 82.7466 94.334 82.7466 93.3594C82.7466 92.3848 82.5339 91.4596 82.1552 90.625H82.7683C86.4298 90.625 89.4087 87.6461 89.4087 83.9846C89.4087 82.9166 89.1538 81.9074 88.7038 81.0125C91.5155 80.2402 93.5876 77.6631 93.5876 74.6098C93.5876 73.1285 93.0997 71.7592 92.2769 70.6537V45.8998C92.2769 44.8213 91.4023 43.9467 90.3237 43.9467C89.2452 43.9467 88.3706 44.8213 88.3706 45.8998V68.1248C87.9116 68.0242 87.4356 67.9695 86.947 67.9695H86.8829C87.2616 67.135 87.4743 66.2098 87.4743 65.2352C87.4743 61.5734 84.4954 58.5947 80.8339 58.5947H77.6942C81.028 57.165 83.3694 53.8514 83.3694 50C83.3694 44.8459 79.1765 40.6527 74.0224 40.6527C68.8685 40.6527 64.6753 44.8459 64.6753 50C64.6753 53.8514 67.0169 57.165 70.3505 58.5947H59.6741V21.4576C63.1632 20.6973 65.9163 17.9443 66.6765 14.4551H81.3681C82.1282 17.9443 84.8813 20.6973 88.3704 21.4576V27.5299C88.3704 28.6084 89.245 29.483 90.3235 29.483C91.4021 29.483 92.2767 28.6084 92.2767 27.5299V19.7139C92.2767 18.6354 91.4021 17.7607 90.3235 17.7607C87.4237 17.7607 85.0649 15.4016 85.0649 12.502C85.0649 11.4234 84.1903 10.5488 83.1118 10.5488H64.9329C63.8544 10.5488 62.9798 11.4234 62.9798 12.502C62.9798 15.4018 60.6208 17.7607 57.7212 17.7607C56.6427 17.7607 55.7681 18.6354 55.7681 19.7139V58.5945H51.9532V3.9084L96.0927 3.90625V96.0938ZM74.0228 55.441C71.0226 55.441 68.5819 53.0002 68.5819 50.0002C68.5819 47.0002 71.0228 44.5592 74.0228 44.5592C77.0228 44.5592 79.4636 47 79.4636 50C79.4636 53 77.0229 55.441 74.0228 55.441Z" fill="#E40000"/>
</svg>
