<svg width="83" height="100" viewBox="0 0 83 100" fill="none" xmlns="http://www.w3.org/2000/svg">
<path d="M80.1392 12.2264C67.6636 11.4451 54.8993 7.42755 42.2007 0.285352C41.5239 -0.0951174 40.6985 -0.0951174 40.0218 0.285352C27.3231 7.42775 14.5588 11.4453 2.08321 12.2264C0.912306 12.2996 0 13.2709 0 14.4444V56.6667C0 63.6534 2.18028 70.3019 6.4797 76.4277C9.85724 81.2396 14.5424 85.7295 20.4051 89.7724C30.2829 96.584 40.0202 99.7613 40.4298 99.8932C40.6512 99.9645 40.8811 100 41.1108 100C41.3405 100 41.5704 99.9643 41.7919 99.8932C42.2016 99.7611 51.9388 96.5838 61.8165 89.7724C67.6792 85.7299 72.3644 81.24 75.7419 76.4277C80.0419 70.3019 82.2222 63.6534 82.2222 56.6667V14.4446C82.2224 13.2709 81.3101 12.2998 80.1392 12.2264ZM77.7781 56.6667C77.7781 67.721 71.5882 77.6084 59.3802 86.0541C51.477 91.5217 43.454 94.5922 41.1104 95.4277C38.7768 94.5976 30.8239 91.5582 22.9284 86.1134C10.6633 77.6556 4.44454 67.7486 4.44454 56.6667V16.5037C16.5643 15.4182 28.8831 11.4746 41.1112 4.76407C53.3396 11.4742 65.6581 15.418 77.7779 16.5037V56.6667H77.7781Z" fill="#E40000"/>
<path d="M49.414 58.2661C49.0994 56.3788 48.7763 54.4401 48.4898 52.519C52.1992 50.0644 54.4447 45.9409 54.4447 41.4122C54.4447 34.0602 48.4634 28.0788 41.1113 28.0788C33.7591 28.0788 27.7778 34.06 27.7778 41.4122C27.7778 45.9409 30.0231 50.0644 33.7327 52.5189C33.4462 54.4399 33.1232 56.3786 32.8085 58.2659C32.165 62.1286 31.4989 66.1226 31.1212 70.0902C31.0618 70.7134 31.2681 71.3326 31.6894 71.796C32.1105 72.2591 32.7073 72.5232 33.3333 72.5232H48.8888C49.5148 72.5232 50.1119 72.2591 50.5328 71.796C50.954 71.333 51.1601 70.7136 51.1009 70.0902C50.7236 66.1228 50.0578 62.1286 49.414 58.2661ZM43.8749 51.6575C44.2161 54.114 44.6298 56.5964 45.0298 58.9968C45.5273 61.982 46.0382 65.0474 46.4103 68.0788H35.8122C36.1843 65.0476 36.695 61.982 37.1927 58.9968C37.5927 56.5964 38.0066 54.114 38.3476 51.6575C38.4786 50.7136 37.9931 49.7911 37.1409 49.3645C34.1071 47.8462 32.2226 44.7987 32.2226 41.4122C32.2226 36.5108 36.2101 32.5233 41.1115 32.5233C46.0128 32.5233 50.0003 36.5108 50.0003 41.4122C50.0003 44.7991 48.1158 47.8462 45.0816 49.3645C44.2294 49.7909 43.7441 50.7134 43.8749 51.6575Z" fill="#E40000"/>
<path d="M40.1005 10.3289C30.364 15.3026 20.4915 18.6196 10.7579 20.1883C9.68076 20.362 8.88916 21.2914 8.88916 22.3823V56.6667C8.88916 66.0986 14.3505 74.6978 25.1216 82.2257C31.0585 86.3746 37.1673 89.1 40.2806 90.3551C40.547 90.4627 40.8295 90.5164 41.1115 90.5164C41.3935 90.5164 41.6759 90.4627 41.9423 90.3551C43.5777 89.6957 46.1365 88.5926 49.0387 87.0826C50.1273 86.5162 50.551 85.1744 49.9844 84.0855C49.4179 82.9966 48.0761 82.5736 46.9875 83.14C44.6943 84.3332 42.6298 85.2566 41.1117 85.8916C38.0015 84.5904 32.7574 82.1396 27.6679 78.5826C18.1564 71.9353 13.3337 64.5616 13.3337 56.6667V24.2549C22.5777 22.5663 31.9089 19.3895 41.1115 14.7973C50.3142 19.3895 59.6453 22.5663 68.8893 24.2549V56.6667C68.8893 62.5161 66.2242 68.1152 60.9678 73.3083C60.0947 74.171 60.0861 75.5779 60.9488 76.4509C61.8117 77.3242 63.2184 77.3326 64.0914 76.4699C70.224 70.4107 73.3336 63.7482 73.3336 56.6667V22.3823C73.3336 21.2914 72.5418 20.3618 71.4649 20.1883C61.7311 18.6196 51.8586 15.3026 42.1222 10.3289C41.4871 10.0045 40.7353 10.0045 40.1005 10.3289Z" fill="#E40000"/>
<path d="M54.1716 78.8599C54.1025 78.9295 54.0336 78.9988 53.9642 79.0674C53.0918 79.9306 53.0847 81.3379 53.948 82.2099C54.3828 82.649 54.9548 82.8689 55.5273 82.8689C56.0922 82.8689 56.6574 82.6548 57.0904 82.2259C57.1695 82.1474 57.2486 82.0683 57.3275 81.9888C58.1918 81.1173 58.1853 79.7101 57.3136 78.8463C56.4425 77.9824 55.0359 77.9882 54.1716 78.8599Z" fill="#E40000"/>
</svg>
