<svg width="100" height="100" viewBox="0 0 100 100" fill="none" xmlns="http://www.w3.org/2000/svg">
<path d="M41.2397 22.7252H39.4515V19.9673C39.4515 18.888 38.5764 18.0132 37.4973 18.0132C36.4183 18.0132 35.5432 18.888 35.5432 19.9673V22.7252H33.7549C29.5981 22.7252 26.216 26.1073 26.216 30.2643V32.1118C26.216 36.2689 29.5981 39.6509 33.7549 39.6509H41.2399C43.242 39.6509 44.8707 41.2797 44.8707 43.2817V44.7313C44.8707 46.7333 43.242 48.3621 41.2399 48.3621H33.7547C31.7529 48.3621 30.1241 46.7333 30.1241 44.7313C30.1241 43.652 29.2491 42.7772 28.17 42.7772C27.0909 42.7772 26.2158 43.652 26.2158 44.7313C26.2158 48.8884 29.5979 52.2704 33.7547 52.2704H35.543V55.0285C35.543 56.1078 36.4181 56.9827 37.4971 56.9827C38.5762 56.9827 39.4513 56.1078 39.4513 55.0285V52.2704H41.2395C45.3966 52.2704 48.7786 48.8884 48.7786 44.7313V43.2817C48.7786 39.1247 45.3966 35.7426 41.2395 35.7426H33.7547C31.7529 35.7426 30.1241 34.1138 30.1241 32.1118V30.2643C30.1241 28.2623 31.7529 26.6335 33.7547 26.6335H41.2397C43.2418 26.6335 44.8705 28.2623 44.8705 30.2643V30.44C44.8705 31.5193 45.7456 32.3942 46.8247 32.3942C47.9038 32.3942 48.7788 31.5193 48.7788 30.44V30.2643C48.7788 26.1071 45.397 22.7252 41.2397 22.7252Z" fill="#E40000"/>
<path d="M97.4091 70.309L78.1806 51.0807C77.8463 50.7464 77.4021 50.5447 76.9304 50.5129L72.7747 50.2328C74.2475 46.1649 74.9946 41.8939 74.9946 37.4984C74.9946 16.8217 58.1738 0 37.4985 0C20.3176 0 5.37069 11.617 1.1509 28.2508C0.885721 29.2968 1.51848 30.3601 2.56453 30.6255C3.61059 30.8912 4.67384 30.2581 4.93922 29.2118C8.71894 14.3136 22.1078 3.9083 37.4985 3.9083C56.0188 3.9083 71.0863 18.9768 71.0863 37.4982C71.0863 41.8177 70.2843 46.0019 68.7001 49.9565L63.451 49.6034C65.1742 45.9241 66.1391 41.8216 66.1391 37.4976C66.1391 21.7046 53.2906 8.85602 37.4975 8.85602C21.7045 8.85602 8.85573 21.7046 8.85573 37.4976C8.85573 53.2907 21.7043 66.1392 37.4973 66.1392C41.7384 66.1392 45.7667 65.2116 49.3913 63.5502L49.7442 68.7852C45.8466 70.3125 41.7335 71.086 37.4983 71.086C22.1019 71.086 8.71171 60.6768 4.93609 45.7727C4.67111 44.7264 3.60766 44.0935 2.56199 44.3583C1.51574 44.6232 0.882595 45.6863 1.14777 46.7324C5.36307 63.3727 20.3112 74.9945 37.4985 74.9945C41.8107 74.9945 46.0098 74.2738 50.0184 72.8523L50.3072 77.1358C50.339 77.6078 50.5407 78.0519 50.8751 78.3863L70.1035 97.6148C71.694 99.205 73.7828 100 75.872 100C77.9612 100 80.05 99.205 81.6404 97.6148L97.4091 81.8461C100.59 78.6652 100.59 73.4898 97.4091 70.309ZM12.764 37.4976C12.764 23.8596 23.8593 12.7643 37.4973 12.7643C51.1354 12.7643 62.2308 23.8596 62.2308 37.4976C62.2308 43.5172 60.0682 49.0406 56.4805 53.3339L54.4367 51.29C53.6734 50.5269 52.4364 50.5269 51.6729 51.29C50.9099 52.0531 50.9099 53.2905 51.6729 54.0536L53.7471 56.1277C49.3977 59.9262 43.7117 62.2307 37.4973 62.2307C23.8595 62.2309 12.764 51.1357 12.764 37.4976ZM94.6453 79.0822L78.8767 94.8508C77.2198 96.5077 74.5242 96.5077 72.8673 94.8508L54.1573 76.141L53.2236 62.279L56.5613 58.9413L57.8957 60.2758C58.2774 60.6575 58.7775 60.8482 59.2775 60.8482C59.7776 60.8482 60.2777 60.6573 60.6593 60.2758C61.4224 59.5127 61.4224 58.2753 60.6593 57.5122L59.3248 56.1778L62.0741 53.4285L75.9357 54.3627L94.6453 73.0726C96.3023 74.7297 96.3023 77.4254 94.6453 79.0822Z" fill="#E40000"/>
<path d="M73.8024 72.7556C76.7917 69.7663 76.7917 64.9023 73.8024 61.913C70.8473 58.9583 65.9149 58.9575 62.96 61.913L61.9163 62.9565C58.927 65.9458 58.927 70.8099 61.9163 73.7989C64.877 76.7479 69.7995 76.7587 72.7587 73.7989L73.8024 72.7556ZM71.0388 69.992L69.9951 71.0356C68.5418 72.4889 66.1345 72.4769 64.6798 71.0356C63.2144 69.5699 63.2144 67.1855 64.6796 65.7201L65.7233 64.6765C67.172 63.2281 69.59 63.2281 71.0386 64.6765C72.5041 66.1422 72.5041 68.5266 71.0388 69.992Z" fill="#E40000"/>
<path d="M78.3985 74.1775C78.8026 75.1633 79.9696 75.6397 80.9508 75.2346C81.9353 74.828 82.4154 73.6664 82.008 72.6825C81.6005 71.6988 80.4392 71.2181 79.4557 71.6253C78.4743 72.0318 77.9895 73.1959 78.3985 74.1775Z" fill="#E40000"/>
<path d="M81.7168 84.9351C81.3967 84.1667 80.5994 83.6725 79.7681 83.7344C78.9521 83.7952 78.2497 84.3756 78.0301 85.1623C77.558 86.8531 79.4883 88.2659 80.9603 87.3311C81.7533 86.8275 82.0721 85.8017 81.7168 84.9351Z" fill="#E40000"/>
<path d="M86.2729 77.5458H73.7286C72.6495 77.5458 71.7744 78.4207 71.7744 79.5C71.7744 80.5792 72.6495 81.4541 73.7286 81.4541H86.2729C87.3519 81.4541 88.227 80.5792 88.227 79.5C88.227 78.4207 87.3521 77.5458 86.2729 77.5458Z" fill="#E40000"/>
<path d="M1.57309 39.415C3.28805 39.7633 4.55004 37.7421 3.52939 36.3437C2.46946 34.8912 0.0873441 35.6076 0.00214308 37.4025C-0.0431932 38.3598 0.635679 39.2247 1.57309 39.415Z" fill="#E40000"/>
</svg>
