<svg width="100" height="100" viewBox="0 0 100 100" fill="none" xmlns="http://www.w3.org/2000/svg">
<path d="M35.4922 71.6435C35.351 71.6032 35.2064 71.5806 35.0609 71.5728C37.2004 69.3241 38.518 66.2864 38.518 62.945V52.6694C38.518 52.5755 38.509 52.4839 38.4963 52.3937C38.5092 52.2081 38.518 52.0214 38.518 51.8327V45.3315C38.518 44.2528 37.6436 43.3784 36.5648 43.3784H23.4646C17.948 43.3784 13.4602 47.8665 13.4602 53.3829V62.945C13.4602 66.2864 14.7775 69.3241 16.9172 71.5728C16.7719 71.5806 16.6273 71.6032 16.4863 71.6435C7.25645 72.4792 0 80.2587 0 89.7024V98.047C0 99.1257 0.874414 100 1.95312 100H50.0248C51.1035 100 51.9779 99.1257 51.9779 98.047V89.7024C51.9779 80.2589 44.7219 72.4794 35.4922 71.6435ZM17.3664 55.8597V53.3827C17.3664 50.0202 20.1021 47.2845 23.4646 47.2845H34.6117V51.8325C34.6117 54.1222 32.749 55.9849 30.4594 55.9849H17.3664V55.8597ZM17.3664 59.8911H30.4594C31.9773 59.8911 33.3982 59.4688 34.6117 58.736V62.9448C34.6117 67.6993 30.7436 71.5675 25.9891 71.5675C21.2346 71.5675 17.3664 67.6993 17.3664 62.9448V59.8911ZM30.24 75.4739L25.9891 79.7251L21.7381 75.4739H30.24ZM48.0719 96.0938H3.90625V92.1876H12.0117C13.0904 92.1876 13.9648 91.3132 13.9648 90.2345C13.9648 89.1558 13.0904 88.2813 12.0117 88.2813H3.97754C4.63359 81.6962 9.79902 76.4226 16.332 75.5921L24.608 83.8681C24.9742 84.2343 25.4711 84.4401 25.9891 84.4401C26.507 84.4401 27.0039 84.2343 27.3701 83.8681L35.6461 75.5921C42.643 76.4813 48.0719 82.4679 48.0719 89.7024V96.0938Z" fill="#E40000"/>
<path d="M83.5148 28.2652C83.3735 28.225 83.2288 28.2023 83.0831 28.1945C85.2226 25.9459 86.5399 22.9082 86.5399 19.5668V9.29102C86.5399 9.19707 86.531 9.10547 86.5183 9.01523C86.5312 8.82969 86.5399 8.64297 86.5399 8.4543V1.95312C86.5399 0.874414 85.6655 0 84.5868 0H71.4866C65.97 0 61.4821 4.48809 61.4821 10.0045V19.5666C61.4821 22.908 62.7995 25.9457 64.939 28.1943C64.7935 28.2021 64.6485 28.2248 64.5073 28.265C55.2778 29.1012 48.022 36.8807 48.022 46.324V54.6684C48.022 55.7471 48.8964 56.6215 49.9751 56.6215H65.6899C66.7687 56.6215 67.6431 55.7471 67.6431 54.6684C67.6431 53.5896 66.7687 52.7152 65.6899 52.7152H51.9282V46.3242C51.9282 39.0896 57.3569 33.1031 64.3538 32.2139L72.6298 40.4898C73.0112 40.8713 73.511 41.0619 74.0108 41.0619C74.5106 41.0619 75.0107 40.8713 75.3919 40.4898L83.6679 32.2139C90.6651 33.1033 96.0939 39.0896 96.0939 46.3242V52.7154H81.7058C80.6271 52.7154 79.7526 53.5898 79.7526 54.6686C79.7526 55.7473 80.6271 56.6217 81.7058 56.6217H98.047C99.1257 56.6217 100 55.7473 100 54.6686V46.3242C100 36.8809 92.744 29.1014 83.5148 28.2652ZM74.0112 36.3467L69.7603 32.0957H78.2622L74.0112 36.3467ZM82.6339 19.5666C82.6339 24.3211 78.7657 28.1893 74.0112 28.1893C69.2567 28.1893 65.3886 24.3213 65.3886 19.5668V16.5129H78.4815C79.9995 16.5129 81.4204 16.0904 82.6339 15.3578V19.5666ZM82.6339 8.4543C82.6339 10.7439 80.7712 12.6066 78.4815 12.6066H65.3886V12.4814V10.0045C65.3886 6.64199 68.1243 3.90625 71.4868 3.90625H82.6339V8.4543Z" fill="#E40000"/>
<path d="M75.3926 53.2871C75.0293 52.9238 74.5254 52.7148 74.0117 52.7148C73.4961 52.7148 72.9941 52.9238 72.6309 53.2871C72.2656 53.6504 72.0586 54.1543 72.0586 54.668C72.0586 55.1836 72.2656 55.6855 72.6309 56.0488C72.9941 56.4141 73.4961 56.6211 74.0117 56.6211C74.5254 56.6211 75.0293 56.4141 75.3926 56.0488C75.7559 55.6855 75.9648 55.1836 75.9648 54.668C75.9648 54.1543 75.7559 53.6504 75.3926 53.2871Z" fill="#E40000"/>
<path d="M52.2275 27.3299L44.0594 19.1617V9.76562C44.0594 4.38086 39.6785 0 34.2938 0H9.76562C4.38086 0 0 4.38086 0 9.76562V26.9531C0 32.3379 4.38086 36.7188 9.76562 36.7188H34.2936C38.3314 36.7188 41.8525 34.2955 43.3299 30.6641H50.8463C51.6361 30.6641 52.3484 30.1881 52.6508 29.4584C52.9531 28.7287 52.7859 27.8885 52.2275 27.3299ZM41.9051 26.7578C40.9951 26.7578 40.2057 27.3861 40.0016 28.273C39.3867 30.9457 37.0396 32.8125 34.2936 32.8125H9.76562C6.53477 32.8125 3.90625 30.184 3.90625 26.9531V9.76562C3.90625 6.53477 6.53477 3.90625 9.76562 3.90625H34.2936C37.5244 3.90625 40.1529 6.53477 40.1529 9.76562V19.9707C40.1529 20.4887 40.3588 20.9855 40.725 21.3518L46.1311 26.7578H41.9051Z" fill="#E40000"/>
<path d="M90.2341 63.2812H65.7062C61.6683 63.2812 58.1472 65.7045 56.6698 69.3359H49.1534C48.3636 69.3359 47.6513 69.8119 47.3489 70.5416C47.0466 71.2713 47.2138 72.1115 47.7722 72.6701L55.9403 80.8383V90.2344C55.9403 95.6191 60.3212 100 65.706 100H90.2341C95.6189 100 99.9997 95.6191 99.9997 90.2344V73.0469C99.9997 67.6621 95.6189 63.2812 90.2341 63.2812ZM96.0935 90.2344C96.0935 93.4652 93.465 96.0938 90.2341 96.0938H65.7062C62.4753 96.0938 59.8468 93.4652 59.8468 90.2344V80.0293C59.8468 79.5113 59.6409 79.0145 59.2747 78.6482L53.8687 73.2422H58.0946C59.0046 73.2422 59.7941 72.6139 59.9982 71.727C60.613 69.0543 62.9601 67.1875 65.7062 67.1875H90.2341C93.465 67.1875 96.0935 69.816 96.0935 73.0469V90.2344Z" fill="#E40000"/>
<path d="M86.7494 76.4438C85.9869 75.6812 84.7501 75.6812 83.9874 76.4438L78.7955 81.6358L76.3812 79.2216C75.6185 78.4589 74.3818 78.4589 73.6189 79.2216C72.8562 79.9843 72.8562 81.221 73.6189 81.9839L77.4142 85.7792C77.7956 86.1607 78.2955 86.3513 78.7953 86.3513C79.2951 86.3513 79.7951 86.1607 80.1763 85.7792L86.7494 79.2062C87.512 78.4435 87.512 77.2067 86.7494 76.4438Z" fill="#E40000"/>
<path d="M30.9085 12.9429C30.6776 9.59387 27.978 6.89426 24.629 6.6634C22.73 6.53274 20.9198 7.17336 19.5331 8.46789C18.1657 9.74426 17.3813 11.5489 17.3813 13.4189C17.3815 14.4978 18.256 15.3722 19.3347 15.3722C20.4134 15.3722 21.2878 14.4978 21.2878 13.4191C21.2878 12.6161 21.6112 11.872 22.1987 11.3236C22.7853 10.7759 23.5538 10.504 24.3606 10.5607C25.7745 10.6581 26.9142 11.7978 27.0116 13.2116C27.1103 14.6411 26.1731 15.9044 24.7835 16.2154C23.2624 16.5556 22.2001 17.878 22.2001 19.4312V20.4732C22.2001 21.5519 23.0745 22.4263 24.1532 22.4263C25.2319 22.4263 26.1064 21.5519 26.1064 20.4732V19.9048C29.1325 19.0021 31.1296 16.1491 30.9085 12.9429Z" fill="#E40000"/>
<path d="M25.5352 26.5664C25.1719 26.2031 24.668 25.9941 24.1543 25.9941C23.6387 25.9941 23.1367 26.2031 22.7734 26.5664C22.4082 26.9297 22.2012 27.4336 22.2012 27.9473C22.2012 28.4609 22.4082 28.9648 22.7734 29.3281C23.1367 29.6914 23.6387 29.9004 24.1543 29.9004C24.668 29.9004 25.1719 29.6914 25.5352 29.3281C25.8984 28.9648 26.1074 28.4609 26.1074 27.9473C26.1074 27.4336 25.8984 26.9297 25.5352 26.5664Z" fill="#E40000"/>
<path d="M21.2051 88.8535C20.8418 88.4902 20.3379 88.2812 19.8242 88.2812C19.3105 88.2812 18.8066 88.4902 18.4434 88.8535C18.0801 89.2168 17.8711 89.7207 17.8711 90.2344C17.8711 90.748 18.0801 91.252 18.4434 91.6152C18.8066 91.9785 19.3105 92.1875 19.8242 92.1875C20.3379 92.1875 20.8418 91.9785 21.2051 91.6152C21.5684 91.252 21.7773 90.748 21.7773 90.2344C21.7773 89.7207 21.5684 89.2168 21.2051 88.8535Z" fill="#E40000"/>
</svg>
