<svg width="100" height="100" viewBox="0 0 100 100" fill="none" xmlns="http://www.w3.org/2000/svg">
<path d="M95.8832 41.7787L94.5969 40.8166C92.9947 39.6173 92.4263 37.4948 93.2137 35.6554L93.8469 34.1791C95.1332 31.1754 94.9341 27.83 93.3007 25.001C91.6665 22.1713 88.8695 20.3258 85.6248 19.939L84.0303 19.7482C82.0428 19.511 80.4887 17.9569 80.2514 15.9702L80.0615 14.3749C79.6739 11.1309 77.8284 8.33322 74.9994 6.69978C72.1697 5.06557 68.8242 4.86645 65.8213 6.15352L64.3443 6.78599C62.5049 7.5741 60.3824 7.00495 59.183 5.40279L58.221 4.11725C56.2633 1.50115 53.2673 0.0012207 49.9996 0.0012207C46.732 0.0012207 43.7359 1.50115 41.7782 4.11725L40.8154 5.40279C39.6161 7.00571 37.4944 7.5741 35.6542 6.78599L34.1779 6.15352C31.1742 4.86721 27.8288 5.06557 24.9998 6.69978C22.1701 8.33322 20.3245 11.1309 19.9377 14.3749L19.747 15.9694C19.5097 17.9569 17.9556 19.511 15.9682 19.7482L14.3737 19.939C11.1297 20.3258 8.332 22.1713 6.69856 25.001C5.06435 27.83 4.86599 31.1754 6.1523 34.1791L6.78477 35.6554C7.57288 37.4948 7.00373 39.6173 5.40157 40.8166L4.11603 41.7787C1.50069 43.7364 0 46.7332 0 50.0001C0 53.2677 1.50069 56.2645 4.11603 58.2222L5.40233 59.1843C7.00449 60.3836 7.57288 62.5061 6.78553 64.3455L6.1523 65.8218C4.86599 68.8255 5.06512 72.1709 6.69856 74.9999C8.33276 77.8296 11.1297 79.6751 14.3744 80.0619L15.969 80.2527C17.9564 80.49 19.5105 82.044 19.7478 84.0307L19.9377 85.626C20.3253 88.87 22.1708 91.6677 24.9998 93.3011C27.8295 94.9346 31.175 95.1337 34.1779 93.8474L35.6549 93.2149C37.4944 92.4268 39.6168 92.996 40.8162 94.5981L41.7782 95.8837C43.7359 98.4998 46.7327 100 50.0004 100C53.2673 100 56.2641 98.4998 58.2217 95.8837L59.1838 94.5981C60.3831 92.996 62.5049 92.4268 64.3458 93.2157L65.8221 93.8474C68.825 95.1337 72.1705 94.9353 75.0002 93.3019C77.8291 91.6677 79.6747 88.87 80.0622 85.626L80.2522 84.0315C80.4895 82.044 82.0436 80.49 84.031 80.2527L85.6256 80.0627C88.8695 79.6751 91.668 77.8296 93.3014 75.0006C94.9349 72.1709 95.134 68.8255 93.8469 65.8218L93.2152 64.3463C92.4271 62.5061 92.9955 60.3836 94.5984 59.1843L95.884 58.2222C98.5001 56.2645 100 53.2677 100 50.0008C99.9992 46.7332 98.4985 43.7364 95.8832 41.7787ZM93.5425 55.0949L92.257 56.057C89.206 58.3397 88.1226 62.381 89.6241 65.8843L90.2558 67.3599C91.0531 69.2207 90.9295 71.2935 89.9178 73.0468C88.9054 74.8008 87.172 75.9436 85.1617 76.184L83.5672 76.3739C79.783 76.8256 76.8251 79.7842 76.3735 83.5684L76.1827 85.1629C75.9424 87.1732 74.7995 88.9066 73.0463 89.919C71.2931 90.9307 69.2202 91.0543 67.3594 90.257L65.8831 89.6245C62.3797 88.1239 58.3392 89.2072 56.0558 92.2582L55.0937 93.5437C53.8807 95.1642 52.0237 96.0942 49.9996 96.0942C47.9748 96.0942 46.1178 95.1642 44.9047 93.5437L43.9427 92.2582C42.3474 90.1258 39.8938 88.9547 37.3654 88.9547C36.2752 88.9547 35.1712 89.1729 34.1161 89.6245L32.6398 90.257C30.7783 91.0543 28.7061 90.9307 26.9522 89.919C25.1989 88.9066 24.0561 87.1732 23.8157 85.1629L23.6258 83.5684C23.1733 79.7842 20.2155 76.8263 16.4313 76.3747L14.8368 76.184C12.8264 75.9436 11.0931 74.8008 10.0806 73.0475C9.06899 71.2943 8.9454 69.2214 9.74266 67.3606L10.3751 65.8843C11.8758 62.3817 10.7925 58.3405 7.74225 56.057L6.45594 55.0949C4.83547 53.8819 3.90622 52.0249 3.90622 50.0001C3.90622 47.976 4.83547 46.119 6.45671 44.906L7.74225 43.9439C10.7932 41.6604 11.8766 37.6192 10.3751 34.1166L9.74342 32.6403C8.94616 30.7795 9.06975 28.7066 10.0814 26.9534C11.0938 25.2002 12.8272 24.0573 14.8375 23.817L16.4321 23.6262C20.2162 23.1746 23.1741 20.2167 23.6258 16.4325L23.8165 14.838C24.0568 12.8277 25.1997 11.0943 26.9529 10.0819C28.7061 9.06945 30.779 8.94662 32.6398 9.74388L34.1161 10.3756C37.6187 11.8763 41.66 10.7937 43.9434 7.74271L44.9055 6.45716C46.1186 4.83669 47.9755 3.90668 49.9996 3.90668C52.0237 3.90668 53.8807 4.83669 55.0937 6.45716L56.0565 7.74347C58.3392 10.7944 62.3813 11.877 65.8831 10.3764L67.3594 9.74388C69.2202 8.94662 71.2931 9.07021 73.0463 10.0819C74.7995 11.0943 75.9432 12.8277 76.1827 14.838L76.3735 16.4325C76.8251 20.2167 79.7838 23.1746 83.5672 23.6262L85.1617 23.817C87.172 24.0573 88.9054 25.2002 89.9178 26.9534C90.9302 28.7066 91.0531 30.7795 90.2566 32.6403L89.6241 34.1166C88.1234 37.6199 89.206 41.6604 92.257 43.9439L93.5425 44.906C95.1637 46.119 96.093 47.976 96.093 50.0008C96.093 52.0249 95.1637 53.8819 93.5425 55.0949Z" fill="#E40000"/>
<path d="M49.9995 11.3521C44.1074 11.3521 38.4494 12.6445 33.1837 15.1934C32.2125 15.6634 31.8066 16.8314 32.2758 17.8019C32.7457 18.7731 33.9146 19.179 34.885 18.709C39.616 16.4195 44.7009 15.2583 49.9995 15.2583C69.156 15.2583 84.7412 30.8435 84.7412 50.0007C84.7412 69.1572 69.156 84.7424 49.9995 84.7424C30.8422 84.7424 15.257 69.1572 15.257 50.0007C15.257 42.154 17.809 34.7505 22.6376 28.5898C23.3029 27.7406 23.1541 26.5131 22.305 25.847C21.4559 25.1817 20.2283 25.3313 19.563 26.1797C14.1912 33.0354 11.3516 41.272 11.3516 50.0007C11.3516 71.311 28.6892 88.6487 49.9995 88.6487C71.3097 88.6487 88.6474 71.311 88.6474 50.0007C88.6474 28.6897 71.3097 11.3521 49.9995 11.3521Z" fill="#E40000"/>
<path d="M21.4434 40.0558L19.9556 41.9525C19.2896 42.8016 19.4383 44.0292 20.2867 44.6945C21.1359 45.3605 22.3635 45.2125 23.0287 44.3633L23.8458 43.3227V56.24H22.5382C21.4594 56.24 20.585 57.1143 20.585 58.1931C20.585 59.2719 21.4594 60.1463 22.5382 60.1463H28.9926C30.0707 60.1463 30.9458 59.2719 30.9458 58.1931C30.9458 57.1143 30.0707 56.24 28.9926 56.24H27.7521V41.2612C27.7521 40.1824 26.877 39.3081 25.799 39.3081H22.9799C22.3802 39.3081 21.8134 39.5835 21.4434 40.0558Z" fill="#E40000"/>
<path d="M37.1385 60.1465H38.1532C41.3789 60.1465 44.0027 57.5227 44.0027 54.297V44.8297C44.0027 41.604 41.3782 38.9795 38.1532 38.9795H37.1385C33.9128 38.9795 31.2891 41.604 31.2891 44.8297V54.297C31.2891 57.5227 33.9128 60.1465 37.1385 60.1465ZM35.1953 44.8297C35.1953 43.7578 36.0674 42.8857 37.1385 42.8857H38.1532C39.2244 42.8857 40.0964 43.7578 40.0964 44.8297V54.297C40.0964 55.3682 39.2244 56.2402 38.1532 56.2402H37.1385C36.0674 56.2402 35.1953 55.3682 35.1953 54.297V44.8297Z" fill="#E40000"/>
<path d="M52.8783 60.1465C56.104 60.1465 58.7278 57.5227 58.7278 54.297V44.8297C58.7278 41.604 56.1033 38.9795 52.8783 38.9795H51.8636C48.6379 38.9795 46.0142 41.604 46.0142 44.8297V54.297C46.0142 57.5227 48.6379 60.1465 51.8636 60.1465H52.8783ZM49.9204 54.297V44.8297C49.9204 43.7578 50.7924 42.8857 51.8636 42.8857H52.8783C53.9495 42.8857 54.8215 43.7578 54.8215 44.8297V54.297C54.8215 55.3682 53.9495 56.2402 52.8783 56.2402H51.8636C50.7924 56.2402 49.9204 55.369 49.9204 54.297Z" fill="#E40000"/>
<path d="M78.6713 38.7422C77.7993 38.1082 76.5778 38.3012 75.943 39.1733L63.533 56.2395C62.8983 57.1123 63.0913 58.3337 63.9641 58.9677C64.3105 59.2195 64.7126 59.3416 65.1108 59.3416C65.7143 59.3416 66.3101 59.0623 66.6924 58.5367L79.1024 41.4705C79.7371 40.5984 79.5433 39.377 78.6713 38.7422Z" fill="#E40000"/>
<path d="M32.4079 31.3043C32.8634 31.3043 33.3211 31.1456 33.6912 30.8229C38.2062 26.88 43.9976 24.7087 49.9996 24.7087C55.6148 24.7087 60.9103 26.5382 65.314 29.9989C66.1624 30.6657 67.3899 30.5184 68.0567 29.6701C68.7228 28.8224 68.5755 27.5941 67.7279 26.9281C62.6285 22.9204 56.4983 20.8025 49.9996 20.8025C43.0531 20.8025 36.3484 23.3164 31.1224 27.8802C30.3098 28.5898 30.2259 29.8234 30.9354 30.6359C31.3215 31.0784 31.8632 31.3043 32.4079 31.3043Z" fill="#E40000"/>
<path d="M32.0483 72.1045C37.1463 76.1114 43.2772 78.2293 49.7759 78.2293C54.2848 78.2293 58.6015 77.2131 62.6069 75.2096C63.5712 74.7275 63.9618 73.5541 63.4797 72.589C62.9967 71.6246 61.8241 71.234 60.859 71.7162C57.4014 73.4465 53.6722 74.3231 49.7759 74.3231C44.1614 74.3231 38.8651 72.4943 34.4615 69.0329C33.6139 68.3669 32.3856 68.5141 31.7195 69.3617C31.0527 70.2101 31.2 71.4377 32.0483 72.1045Z" fill="#E40000"/>
<path d="M69.1792 68.7635C68.7473 68.1165 67.9386 67.7809 67.1749 67.9334C66.3647 68.0959 65.7269 68.7734 65.6193 69.5936C65.514 70.3901 65.9275 71.192 66.6355 71.5704C67.3466 71.9511 68.2408 71.8466 68.8473 71.3148C69.5767 70.6732 69.7064 69.57 69.1792 68.7635Z" fill="#E40000"/>
<path d="M65.8633 38.3691C63.3288 38.3691 61.2666 40.4306 61.2666 42.9651C61.2666 45.4996 63.3288 47.5618 65.8633 47.5618C68.397 47.5618 70.4593 45.4996 70.4593 42.9651C70.4593 40.4306 68.397 38.3691 65.8633 38.3691ZM65.8633 43.6555C65.4826 43.6555 65.1729 43.3458 65.1729 42.9651C65.1729 42.5844 65.4826 42.2746 65.8633 42.2746C66.244 42.2746 66.553 42.5844 66.553 42.9651C66.553 43.3458 66.244 43.6555 65.8633 43.6555Z" fill="#E40000"/>
<path d="M72.1074 54.8682C72.1074 57.4027 74.1696 59.4649 76.7034 59.4649C79.2379 59.4649 81.3001 57.4027 81.3001 54.8682C81.3001 52.3337 79.2379 50.2715 76.7034 50.2715C74.1696 50.2715 72.1074 52.3337 72.1074 54.8682ZM77.3938 54.8682C77.3938 55.2489 77.0848 55.5587 76.7041 55.5587C76.3234 55.5587 76.0137 55.2489 76.0137 54.8682C76.0137 54.4875 76.3234 54.1777 76.7041 54.1777C77.0848 54.1777 77.3938 54.4875 77.3938 54.8682Z" fill="#E40000"/>
<path d="M25.2871 22.159C25.6014 22.9135 26.3689 23.4003 27.1853 23.3621C27.9909 23.324 28.6989 22.7731 28.9477 22.0087C29.1987 21.2366 28.9255 20.3546 28.2786 19.8625C27.6186 19.3605 26.697 19.3315 26.0058 19.7885C25.2352 20.2974 24.9392 21.3098 25.2871 22.159Z" fill="#E40000"/>
</svg>
