<svg width="212" height="34" viewBox="0 0 212 34" fill="none" xmlns="http://www.w3.org/2000/svg">
<g opacity="0.95">
<path d="M105.305 28.6224C104.813 28.6224 104.294 28.5134 103.938 28.241C103.719 28.0502 103.419 27.6688 103.419 27.0421V14.045H106.18V25.6525C106.18 25.8159 106.153 26.0884 106.372 26.2791C106.454 26.3336 106.618 26.4426 107.055 26.4426H115.094V28.6224H105.305Z" fill="white"/>
<path d="M119.579 15.5166C120.099 14.2904 120.673 13.8817 121.986 13.8817C123.243 13.8817 123.872 14.2904 124.392 15.5166L129.915 28.6226H127.017L125.513 24.9442H118.458L116.982 28.6226H114.083L119.579 15.5166ZM119.169 22.9824H124.802L122.423 17.0424C122.341 16.8245 122.204 16.443 122.013 16.443C121.821 16.443 121.685 16.8517 121.603 17.0424L119.169 22.9824Z" fill="white"/>
<path d="M139.758 14.0452C140.551 14.0452 141.644 14.1269 142.41 14.9171C143.23 15.7618 143.34 17.0969 143.34 18.0505C143.34 18.8407 143.285 19.6581 142.656 20.4211C142.246 20.9115 141.808 21.1295 141.289 21.184V21.2657C141.973 21.3202 142.547 21.6472 142.902 22.0287C143.586 22.7916 143.586 23.827 143.586 24.6444C143.586 25.5981 143.586 26.7697 142.738 27.6962C141.891 28.6226 140.961 28.6226 140.059 28.6226H133.059C132.32 28.6226 131.664 28.7043 131.062 28.0504C130.926 27.8869 130.57 27.3964 130.57 26.579V16.1432C130.57 15.5983 130.707 15.0261 131.035 14.6446C131.473 14.1269 132.129 14.0452 132.594 14.0452H139.758ZM133.305 20.1486H138.664C139.211 20.1486 139.785 20.1486 140.168 19.6309C140.277 19.4947 140.469 19.1404 140.469 18.1595C140.469 17.7508 140.441 17.0424 139.976 16.6064C139.566 16.225 139.074 16.225 138.609 16.225H134.098C133.879 16.225 133.633 16.1977 133.469 16.3885C133.305 16.5792 133.277 16.8789 133.277 17.0424L133.305 20.1486ZM133.305 25.3529C133.305 25.8433 133.359 26.0886 133.469 26.1975C133.687 26.4428 134.152 26.4155 134.371 26.4155H138.719C139.156 26.4155 139.922 26.3883 140.332 25.8978C140.633 25.5164 140.715 24.8897 140.715 24.4265C140.715 24.0177 140.66 23.3366 140.414 22.9551C140.25 22.7371 139.84 22.3556 138.937 22.3556H133.332L133.305 25.3529Z" fill="white"/>
<path d="M145.2 26.4428H153.321C154.633 26.4428 154.688 25.3529 154.688 24.8624C154.688 24.2902 154.551 23.609 153.266 23.2276L147.497 21.402C147.278 21.3475 146.348 21.0205 145.774 20.3121C145.118 19.5219 145.008 18.3775 145.008 17.5601C145.008 16.6882 145.118 15.6255 145.938 14.8626C146.704 14.1542 147.633 14.0452 148.344 14.0452H156.766V16.225H149.301C148.919 16.225 148.481 16.2522 148.153 16.5519C147.798 16.8789 147.77 17.3966 147.77 17.6691C147.77 18.323 147.962 18.9497 149.137 19.3039L154.497 20.9933C155.481 21.293 156.137 21.62 156.575 22.0287C157.45 22.8733 157.532 24.154 157.532 24.8352C157.532 25.7616 157.395 26.7697 156.794 27.5327C156.055 28.4591 155.153 28.5681 154.169 28.5681H145.2V26.4428Z" fill="white"/>
<path d="M163.055 15.5167C163.575 14.2906 164.149 13.8819 165.462 13.8819C166.719 13.8819 167.348 14.2906 167.868 15.5167L173.391 28.6227H170.493L168.989 24.9443H161.934L160.458 28.6227H157.559L163.055 15.5167ZM162.645 22.9825H168.278L165.899 17.0426C165.817 16.8246 165.68 16.4431 165.489 16.4431C165.298 16.4431 165.161 16.8518 165.079 17.0426L162.645 22.9825Z" fill="white"/>
<path d="M175.907 28.6226C175.415 28.6226 174.895 28.5136 174.54 28.2411C174.321 28.0504 174.02 27.6689 174.02 27.0422V14.0452H176.782V25.6526C176.782 25.8161 176.754 26.0885 176.973 26.2793C177.055 26.3338 177.219 26.4428 177.657 26.4428H185.696V28.6226H175.907Z" fill="white"/>
<path d="M188.758 28.6226C188.129 28.6226 187.555 28.6226 187.09 28.1594C186.598 27.6689 186.543 27.015 186.543 26.4428V16.116C186.543 15.5438 186.735 14.9444 187.035 14.5901C187.528 14.0724 188.239 14.018 188.785 14.018H198.164V16.1977H190.262C190.016 16.1977 189.715 16.225 189.496 16.4157C189.278 16.6337 189.278 16.9062 189.278 17.1242V20.0669H197.973V22.2467H189.305V25.6526C189.305 25.8706 189.387 26.1158 189.524 26.2248C189.688 26.3883 190.016 26.4155 190.453 26.4155H198.274V28.5953H188.758V28.6226Z" fill="white"/>
<path d="M199.723 26.4428H207.816C209.129 26.4428 209.184 25.3529 209.184 24.8624C209.184 24.2902 209.047 23.609 207.762 23.2276L201.992 21.402C201.774 21.3475 200.844 21.0205 200.27 20.3121C199.613 19.5219 199.504 18.3775 199.504 17.5601C199.504 16.6882 199.613 15.6255 200.434 14.8626C201.199 14.1542 202.129 14.0452 202.84 14.0452H211.262V16.225H203.77C203.387 16.225 202.949 16.2522 202.621 16.5519C202.266 16.8789 202.238 17.3966 202.238 17.6691C202.238 18.323 202.43 18.9497 203.606 19.3039L208.965 20.9933C209.949 21.293 210.605 21.62 211.043 22.0287C211.918 22.8734 212 24.154 212 24.8352C212 25.7616 211.863 26.7697 211.262 27.5327C210.523 28.4591 209.621 28.5681 208.637 28.5681H199.641V26.4428H199.723Z" fill="white"/>
<path d="M97.7314 13.1182L92.9189 1.56524C92.7548 1.18378 92.6181 0.911301 92.4541 0.775064C92.2627 0.584332 91.9892 0.475342 91.6611 0.475342C91.333 0.475342 91.0595 0.584332 90.8681 0.775064C90.7041 0.911301 90.5674 1.18378 90.4033 1.56524L85.5908 13.1454V26.4967C85.5908 27.2051 85.7275 27.6956 86.0283 28.0225C86.3291 28.3495 86.7666 28.4857 87.3408 28.4857H96.0087C96.583 28.4857 97.0205 28.3223 97.3212 28.0225C97.622 27.6956 97.7587 27.2051 97.7587 26.4967L97.7314 13.1182ZM96.5556 13.1182V15.189C96.3642 15.08 96.1455 14.9982 95.8994 14.971C95.4892 14.9165 95.1064 15.0255 94.8056 15.2435L92.5634 12.9002C92.6455 12.7367 92.7002 12.5732 92.7275 12.4097C92.8369 11.5378 92.2353 10.7476 91.3603 10.6386C90.4853 10.5297 89.6924 11.1291 89.583 12.001C89.5283 12.5187 89.7197 13.0092 90.0752 13.3634L89.0635 15.4614C89.0088 15.4614 88.9541 15.4342 88.8994 15.4342C88.6533 15.407 88.3799 15.4342 88.1611 15.5159L86.876 12.8729L91.2783 1.78322C91.3877 1.51075 91.5244 1.37451 91.6611 1.37451C91.7978 1.37451 91.9072 1.51075 92.0439 1.78322L96.5556 13.1182Z" fill="white"/>
<path d="M96.5556 17.8592V26.5784C96.5556 26.9053 96.501 27.1233 96.3916 27.2323C96.2822 27.3413 96.0635 27.3958 95.7627 27.3958H87.5596C87.2588 27.3958 87.0401 27.3413 86.9307 27.2323C86.8213 27.1233 86.7666 26.9053 86.7666 26.5784V14.4805L87.4776 15.9519C87.2862 16.1698 87.1768 16.4423 87.1221 16.7693C87.0127 17.6412 87.6143 18.4314 88.4893 18.5404C89.3643 18.6494 90.1572 18.0499 90.2666 17.178C90.3213 16.6603 90.1299 16.1698 89.8018 15.8429L90.8135 13.7448C90.8682 13.7448 90.9229 13.7721 90.9776 13.7721C91.3604 13.8266 91.7432 13.7176 92.044 13.5268L94.3135 15.8701C94.2314 16.0064 94.2041 16.1698 94.1768 16.3333C94.0674 17.2052 94.6689 17.9954 95.5439 18.1044C95.8994 18.1317 96.2549 18.0499 96.5556 17.8592Z" fill="#EA524E"/>
</g>
<path opacity="0.95" d="M6.24414 19.3818C5.14583 19.3818 4.27767 19.7487 3.63965 20.4824C3.00618 21.2116 2.68945 22.2119 2.68945 23.4834C2.68945 24.7913 2.99479 25.8031 3.60547 26.5186C4.2207 27.2295 5.0957 27.585 6.23047 27.585C6.92773 27.585 7.72298 27.4596 8.61621 27.209V28.2275C7.9235 28.4873 7.06901 28.6172 6.05273 28.6172C4.58073 28.6172 3.44368 28.1706 2.6416 27.2773C1.84408 26.3841 1.44531 25.1149 1.44531 23.4697C1.44531 22.4398 1.63672 21.5374 2.01953 20.7627C2.4069 19.988 2.96289 19.391 3.6875 18.9717C4.41667 18.5524 5.27344 18.3428 6.25781 18.3428C7.30599 18.3428 8.22201 18.5342 9.00586 18.917L8.51367 19.915C7.75716 19.5596 7.00065 19.3818 6.24414 19.3818ZM17.1338 31.0713H16.0332V28.4805H10.7969V31.0713H9.70312V27.5029H10.291C10.9017 26.6735 11.3802 25.7005 11.7266 24.584C12.0729 23.4674 12.2529 22.2689 12.2666 20.9883H16.0605V27.5029H17.1338V31.0713ZM14.9668 27.5029V21.8838H13.2852C13.2259 22.8955 13.0299 23.9209 12.6973 24.96C12.3691 25.9945 11.959 26.8421 11.4668 27.5029H14.9668ZM21.8027 28.6172C20.6953 28.6172 19.8203 28.2799 19.1777 27.6055C18.5397 26.931 18.2207 25.9945 18.2207 24.7959C18.2207 23.5882 18.5169 22.6289 19.1094 21.918C19.7064 21.207 20.5062 20.8516 21.5088 20.8516C22.4476 20.8516 23.1904 21.1615 23.7373 21.7812C24.2842 22.3965 24.5576 23.21 24.5576 24.2217V24.9395H19.3965C19.4193 25.819 19.6403 26.4867 20.0596 26.9424C20.4834 27.3981 21.0781 27.626 21.8438 27.626C22.6504 27.626 23.4479 27.4574 24.2363 27.1201V28.1318C23.8353 28.305 23.4548 28.4281 23.0947 28.501C22.7393 28.5785 22.3086 28.6172 21.8027 28.6172ZM21.4951 21.8018C20.8936 21.8018 20.4128 21.9977 20.0527 22.3896C19.6973 22.7816 19.4876 23.3239 19.4238 24.0166H23.3408C23.3408 23.3011 23.1813 22.7542 22.8623 22.376C22.5433 21.9932 22.0876 21.8018 21.4951 21.8018ZM32.084 28.4805H30.9355V21.959H28.6865C28.5635 23.5814 28.3926 24.8688 28.1738 25.8213C27.9551 26.7738 27.6702 27.471 27.3193 27.9131C26.973 28.3551 26.5309 28.5762 25.9932 28.5762C25.7471 28.5762 25.5511 28.5488 25.4053 28.4941V27.6533C25.5055 27.6807 25.6195 27.6943 25.7471 27.6943C26.2712 27.6943 26.6882 27.1406 26.998 26.0332C27.3079 24.9258 27.5426 23.2441 27.7021 20.9883H32.084V28.4805ZM39.1045 28.4805L38.8789 27.4141H38.8242C38.4505 27.8835 38.0768 28.2025 37.7031 28.3711C37.334 28.5352 36.8714 28.6172 36.3154 28.6172C35.5726 28.6172 34.9893 28.4258 34.5654 28.043C34.1462 27.6602 33.9365 27.1156 33.9365 26.4092C33.9365 24.8962 35.1465 24.1032 37.5664 24.0303L38.8379 23.9893V23.5244C38.8379 22.9365 38.7103 22.5036 38.4551 22.2256C38.2044 21.943 37.8011 21.8018 37.2451 21.8018C36.6208 21.8018 35.9144 21.9932 35.126 22.376L34.7773 21.5078C35.1465 21.3073 35.5498 21.1501 35.9873 21.0361C36.4294 20.9222 36.8714 20.8652 37.3135 20.8652C38.2067 20.8652 38.8675 21.0635 39.2959 21.46C39.7288 21.8564 39.9453 22.4922 39.9453 23.3672V28.4805H39.1045ZM36.541 27.6807C37.2474 27.6807 37.8011 27.487 38.2021 27.0996C38.6077 26.7122 38.8105 26.1699 38.8105 25.4727V24.7959L37.6758 24.8438C36.7734 24.8757 36.1217 25.0169 35.7207 25.2676C35.3242 25.5137 35.126 25.8988 35.126 26.4229C35.126 26.833 35.249 27.1452 35.4951 27.3594C35.7458 27.5736 36.0944 27.6807 36.541 27.6807ZM43.4248 20.9883V24.126H47.6221V20.9883H48.7568V28.4805H47.6221V25.1035H43.4248V28.4805H42.29V20.9883H43.4248ZM57.6299 24.7275C57.6299 25.9489 57.3223 26.9036 56.707 27.5918C56.0918 28.2754 55.2419 28.6172 54.1572 28.6172C53.4873 28.6172 52.8926 28.46 52.373 28.1455C51.8535 27.8311 51.4525 27.3799 51.1699 26.792C50.8874 26.2041 50.7461 25.516 50.7461 24.7275C50.7461 23.5062 51.0514 22.556 51.6621 21.877C52.2728 21.1934 53.1204 20.8516 54.2051 20.8516C55.2533 20.8516 56.085 21.2002 56.7002 21.8975C57.32 22.5947 57.6299 23.5381 57.6299 24.7275ZM51.9219 24.7275C51.9219 25.6846 52.1133 26.4137 52.4961 26.915C52.8789 27.4163 53.4417 27.667 54.1846 27.667C54.9274 27.667 55.4902 27.4186 55.873 26.9219C56.2604 26.4206 56.4541 25.6891 56.4541 24.7275C56.4541 23.7751 56.2604 23.0527 55.873 22.5605C55.4902 22.0638 54.9229 21.8154 54.1709 21.8154C53.4281 21.8154 52.8675 22.0592 52.4893 22.5469C52.111 23.0345 51.9219 23.7614 51.9219 24.7275ZM69.3398 22.8682C69.3398 23.3558 69.1986 23.7272 68.916 23.9824C68.638 24.2331 68.2461 24.4017 67.7402 24.4883V24.5498C68.3783 24.6364 68.8431 24.8232 69.1348 25.1104C69.431 25.3975 69.5791 25.7939 69.5791 26.2998C69.5791 26.9971 69.3216 27.5348 68.8066 27.9131C68.2962 28.2913 67.5488 28.4805 66.5645 28.4805H63.2627V20.9883H66.5508C68.4102 20.9883 69.3398 21.6149 69.3398 22.8682ZM68.4443 26.2246C68.4443 25.819 68.2894 25.5251 67.9795 25.3428C67.6742 25.1559 67.166 25.0625 66.4551 25.0625H64.3975V27.5303H66.4824C67.7904 27.5303 68.4443 27.0951 68.4443 26.2246ZM68.2324 22.9775C68.2324 22.613 68.0911 22.3555 67.8086 22.2051C67.5306 22.0501 67.1068 21.9727 66.5371 21.9727H64.3975V24.085H66.3184C67.0202 24.085 67.5146 23.9984 67.8018 23.8252C68.0889 23.652 68.2324 23.3695 68.2324 22.9775Z" fill="white"/>
</svg>
