<svg width="219" height="57" viewBox="0 0 219 57" fill="none" xmlns="http://www.w3.org/2000/svg">
<path d="M82.5282 38.5919C82.5414 39.3038 82.288 39.9211 81.7653 40.449C81.2426 40.977 80.6275 41.2344 79.92 41.2187C79.2336 41.2187 78.6423 40.9849 78.1487 40.5147C77.6524 40.0445 77.3857 39.4693 77.3435 38.7863H76.4274V41.1136H75.6276V36.0755H76.4274V38.0824H77.3725C77.4913 37.4677 77.7896 36.9608 78.2674 36.5615C78.7453 36.1622 79.2996 35.9626 79.9306 35.9626C80.6381 35.9495 81.2505 36.2043 81.7706 36.727C82.288 37.2549 82.5414 37.8749 82.5282 38.5919ZM81.1924 39.9421C81.5356 39.5796 81.7072 39.1331 81.7072 38.6025C81.7072 38.0719 81.5356 37.6227 81.1924 37.2523C80.8493 36.8846 80.4295 36.6981 79.9279 36.6981C79.4158 36.6981 78.9908 36.8793 78.6555 37.2418C78.3202 37.6043 78.1513 38.0561 78.1513 38.6025C78.1513 39.1331 78.3202 39.5796 78.6608 39.9421C79.0013 40.3046 79.4184 40.4858 79.92 40.4858C80.4242 40.4858 80.8493 40.3046 81.1924 39.9421Z" fill="white"/>
<path d="M90.4664 36.7191C90.9416 37.2235 91.1792 37.846 91.1792 38.592C91.1792 39.338 90.9389 39.9631 90.4558 40.4701C89.9727 40.9771 89.3787 41.2292 88.6739 41.2292C87.8766 41.2292 87.2563 40.9508 86.8128 40.3913V42.9786H86.0129V36.0782H86.7626V36.8846C86.9553 36.5957 87.2246 36.3698 87.5625 36.2069C87.903 36.0441 88.2726 35.9653 88.6739 35.9653C89.3919 35.9653 89.9912 36.2174 90.4664 36.7191ZM89.8407 39.9579C90.1839 39.6006 90.3555 39.1489 90.3555 38.6025C90.3555 38.0561 90.1839 37.6043 89.8407 37.2418C89.4975 36.8794 89.0699 36.6981 88.5577 36.6981C88.072 36.6981 87.6575 36.8636 87.3143 37.1946C86.9712 37.5255 86.7996 37.9905 86.7996 38.592C86.7996 39.2066 86.9685 39.6768 87.3038 40.0052C87.639 40.3335 88.0562 40.4964 88.5577 40.4964C89.0699 40.4964 89.4975 40.3177 89.8407 39.9579Z" fill="white"/>
<path d="M98.5471 35.9653H98.8374V41.1163H98.0376V37.5571L94.9489 41.2292H94.6585V36.0782H95.4584V39.6479L98.5471 35.9653Z" fill="white"/>
<path d="M106.607 40.4122H107.428V42.574H106.628V41.1162H102.647V42.574H101.847V40.4122H102.42C102.837 39.9841 103.059 39.0122 103.085 37.4939L103.117 36.0755H106.609V40.4122H106.607ZM103.257 40.4122H105.804V36.7926H103.869L103.837 37.5071C103.806 38.9465 103.61 39.9158 103.257 40.4122Z" fill="white"/>
<path d="M114.653 35.9653H114.943V41.1163H114.144V37.5571L111.055 41.2292H110.765V36.0782H111.564V39.6479L114.653 35.9653Z" fill="white"/>
<path d="M121.702 36.0781H122.501V41.1162H121.702V39.1304C121.39 39.2827 120.962 39.3589 120.424 39.3589C119.806 39.3589 119.318 39.1881 118.959 38.8467C118.597 38.5052 118.418 38.0219 118.418 37.3941V36.0807H119.217V37.3521C119.217 38.2136 119.671 38.6444 120.58 38.6444C121.002 38.6444 121.377 38.5709 121.702 38.4264V36.0781Z" fill="white"/>
<path d="M130.817 38.8415H126.815C126.863 39.3379 127.061 39.7372 127.409 40.0419C127.755 40.3466 128.177 40.4963 128.676 40.4963C129.252 40.4963 129.766 40.2678 130.226 39.8134L130.693 40.3519C130.125 40.9376 129.45 41.2318 128.666 41.2318C127.911 41.2318 127.274 40.9796 126.757 40.4727C126.24 39.9657 125.983 39.3432 125.983 38.6051C125.983 37.8749 126.234 37.2523 126.738 36.7375C127.24 36.2226 127.852 35.9678 128.573 35.9678C129.231 35.9678 129.782 36.1806 130.22 36.6088C130.659 37.0369 130.88 37.5807 130.88 38.2426C130.88 38.4343 130.859 38.634 130.817 38.8415ZM126.847 38.1375H130.059C130.052 37.6962 129.906 37.3443 129.624 37.0816C129.341 36.8189 128.982 36.6876 128.552 36.6876C128.13 36.6876 127.763 36.8215 127.451 37.0868C127.14 37.3521 126.936 37.7041 126.847 38.1375Z" fill="white"/>
<path d="M133.998 38.5919C133.985 37.8748 134.241 37.2549 134.766 36.7295C135.292 36.2042 135.92 35.9494 136.649 35.9651C137.084 35.9651 137.483 36.0623 137.844 36.2541C138.206 36.4458 138.502 36.7164 138.739 37.0605L138.167 37.5149C137.765 36.9712 137.261 36.698 136.659 36.698C136.139 36.698 135.704 36.8819 135.35 37.2522C134.996 37.6226 134.819 38.0691 134.819 38.5919C134.819 39.1225 134.996 39.5743 135.35 39.942C135.704 40.3098 136.139 40.4963 136.659 40.4963C137.256 40.4963 137.755 40.2283 138.156 39.6898L138.729 40.1338C138.23 40.864 137.536 41.2291 136.649 41.2291C135.915 41.2291 135.289 40.9717 134.772 40.4595C134.257 39.9473 133.998 39.3247 133.998 38.5919Z" fill="white"/>
<path d="M142.171 41.1162V36.0781H142.971V41.1162H142.171ZM144.054 38.366L146.435 41.1188H145.426L143.077 38.387L145.207 36.0807H146.205L144.054 38.366Z" fill="white"/>
<path d="M153.491 35.9653H153.782V41.1163H152.982V37.5571L149.893 41.2292H149.603V36.0782H150.402V39.6479L153.491 35.9653Z" fill="white"/>
<path d="M161.508 35.9652H161.799V41.1162H160.999V37.557L157.91 41.2292H157.62V36.0781H158.42V39.6479L161.508 35.9652ZM158.253 33.5539V33.2334H158.929V33.5328C158.929 33.8717 159.006 34.1317 159.164 34.313C159.323 34.4942 159.539 34.5862 159.824 34.5862C160.115 34.5862 160.339 34.4942 160.495 34.313C160.65 34.1317 160.73 33.8691 160.73 33.5328V33.2334H161.405V33.5539C161.405 34.0424 161.263 34.4391 160.975 34.7385C160.687 35.038 160.305 35.1877 159.827 35.1877C159.354 35.1877 158.977 35.038 158.689 34.7385C158.396 34.4391 158.253 34.0451 158.253 33.5539Z" fill="white"/>
<path d="M174.679 42.574V41.1162H170.624V36.0781H171.424V40.4122H173.855V36.0781H174.655V40.4122H175.476V42.574H174.679Z" fill="white"/>
<path d="M183.182 38.8415H179.18C179.227 39.3379 179.425 39.7372 179.774 40.0419C180.12 40.3466 180.542 40.4963 181.041 40.4963C181.617 40.4963 182.131 40.2678 182.591 39.8134L183.058 40.3519C182.49 40.9376 181.815 41.2318 181.03 41.2318C180.275 41.2318 179.639 40.9796 179.122 40.4727C178.604 39.9657 178.348 39.3432 178.348 38.6051C178.348 37.8749 178.599 37.2523 179.103 36.7375C179.605 36.2226 180.217 35.9678 180.938 35.9678C181.595 35.9678 182.147 36.1806 182.585 36.6088C183.024 37.0369 183.245 37.5807 183.245 38.2426C183.245 38.4343 183.224 38.634 183.182 38.8415ZM179.212 38.1375H182.424C182.416 37.6962 182.271 37.3443 181.989 37.0816C181.706 36.8189 181.347 36.6876 180.917 36.6876C180.495 36.6876 180.128 36.8215 179.816 37.0868C179.505 37.3521 179.301 37.7041 179.212 38.1375Z" fill="white"/>
<path d="M186.727 41.1162V36.0781H187.527V38.0849H190.011V36.0781H190.811V41.1162H190.011V38.7889H187.527V41.1162H186.727Z" fill="white"/>
<path d="M195.679 41.1162V36.7926H193.974V36.0781H198.174V36.7926H196.468V41.1162H195.679Z" fill="white"/>
<path d="M205.811 36.7191C206.286 37.2235 206.524 37.846 206.524 38.592C206.524 39.338 206.284 39.9631 205.801 40.4701C205.317 40.9771 204.723 41.2292 204.019 41.2292C203.221 41.2292 202.601 40.9508 202.158 40.3913V42.9786H201.358V36.0782H202.105V36.8846C202.3 36.5957 202.567 36.3698 202.905 36.2069C203.245 36.0441 203.615 35.9653 204.016 35.9653C204.737 35.9653 205.336 36.2174 205.811 36.7191ZM205.185 39.9579C205.529 39.6006 205.7 39.1489 205.7 38.6025C205.7 38.0561 205.529 37.6043 205.185 37.2418C204.842 36.8794 204.415 36.6981 203.902 36.6981C203.417 36.6981 203.002 36.8636 202.659 37.1946C202.316 37.5255 202.144 37.9905 202.144 38.592C202.144 39.2066 202.313 39.6768 202.649 40.0052C202.984 40.3335 203.404 40.4964 203.902 40.4964C204.415 40.4964 204.842 40.3177 205.185 39.9579Z" fill="white"/>
<path d="M87.6364 14.0256H88.827V28.4936H85.1047V21.1072L77.3593 28.751H76.1687V14.283H79.8909V21.5827L87.6364 14.0256Z" fill="white"/>
<path d="M105.033 14.0244H106.224V28.4924H102.502V22.5297L99.537 25.9733H98.3464L95.4056 22.5481V28.4897H91.6833V14.0244H92.8739L98.9536 21.4081L105.033 14.0244Z" fill="white"/>
<path d="M109.08 28.4921V14.2815H118.99V17.6174H112.802V19.5769H117.216V22.6765H112.802V25.1535H119.249V28.4894H109.08V28.4921Z" fill="white"/>
<path d="M141.688 21.3868C141.717 23.4094 140.973 25.1536 139.46 26.6193C137.947 28.085 136.163 28.7942 134.114 28.7495C132.298 28.7495 130.706 28.1901 129.344 27.0711C127.982 25.9521 127.148 24.531 126.844 22.8079H125.287V28.4921H121.564V14.2815H125.287V19.4693H126.952C127.369 17.8618 128.235 16.551 129.55 15.5397C130.862 14.5284 132.385 14.0215 134.114 14.0215C136.163 13.9794 137.947 14.6887 139.471 16.1544C140.991 17.6175 141.73 19.3616 141.688 21.3868ZM136.796 24.2395C137.517 23.5013 137.879 22.5505 137.879 21.3868C137.879 20.2232 137.517 19.2723 136.796 18.5342C136.076 17.7961 135.181 17.4257 134.114 17.4257C133.048 17.4257 132.153 17.7961 131.432 18.5342C130.711 19.2723 130.35 20.2232 130.35 21.3868C130.35 22.5505 130.711 23.5013 131.432 24.2395C132.153 24.9776 133.048 25.3479 134.114 25.3479C135.181 25.3479 136.076 24.9776 136.796 24.2395Z" fill="white"/>
<path d="M149.867 28.4921V14.2815H162.308V28.4921H158.586V17.6174H153.589V28.4894H149.867V28.4921Z" fill="white"/>
<path d="M165.165 28.4921V14.2815H170.769C172.369 14.2815 173.689 14.7306 174.729 15.6263C175.766 16.5247 176.287 17.7041 176.287 19.1672C176.287 20.6014 175.759 21.7808 174.708 22.6975C173.655 23.6169 172.343 24.0765 170.769 24.0765H168.887V28.4894H165.165V28.4921ZM168.887 20.8483H170.79C171.31 20.8483 171.725 20.6933 172.034 20.386C172.343 20.0787 172.498 19.6715 172.498 19.1698C172.498 18.6681 172.343 18.2662 172.034 17.9641C171.722 17.6621 171.308 17.5123 170.79 17.5123H168.887V20.8483Z" fill="white"/>
<path d="M185.352 28.4924L184.832 27.3077H179.703L179.183 28.4924H175.183L181.675 14.0244H182.865L189.357 28.4924H185.352ZM183.512 24.3369L182.279 21.043L181.025 24.3369H183.512Z" fill="white"/>
<path d="M202.316 24.2709C202.316 25.4897 201.856 26.4984 200.94 27.2969C200.024 28.0928 198.873 28.4921 197.49 28.4921H190.824V14.2815H195.975C197.361 14.2815 198.509 14.6728 199.425 15.4556C200.341 16.2384 200.801 17.247 200.801 18.4816C200.801 19.443 200.513 20.2389 199.935 20.8719C201.521 21.5155 202.316 22.6502 202.316 24.2709ZM195.737 17.4046H194.396V19.9027H195.737C196.183 19.9027 196.534 19.7871 196.785 19.5586C197.036 19.33 197.163 19.028 197.163 18.655C197.163 18.282 197.036 17.9799 196.785 17.7514C196.534 17.5176 196.183 17.4046 195.737 17.4046ZM198.681 24.1212C198.681 23.2885 198.206 22.8735 197.253 22.8735H194.396V25.3715H197.253C198.206 25.3689 198.681 24.9539 198.681 24.1212Z" fill="white"/>
<path d="M203.591 21.3868C203.549 19.3616 204.293 17.6201 205.83 16.1544C207.366 14.6913 209.18 13.9794 211.27 14.0215C213.361 13.9794 215.183 14.6887 216.735 16.1544C218.285 17.6175 219.04 19.3616 218.997 21.3868C219.04 23.4252 218.287 25.1693 216.735 26.6193C215.183 28.0692 213.364 28.7784 211.27 28.7495C209.164 28.7784 207.348 28.0692 205.819 26.6193C204.291 25.1693 203.549 23.4252 203.591 21.3868ZM215.191 21.3868C215.191 20.2232 214.818 19.2723 214.077 18.5342C213.335 17.7961 212.406 17.4257 211.297 17.4257C210.143 17.4257 209.206 17.7908 208.483 18.5237C207.762 19.2565 207.4 20.21 207.4 21.3868C207.4 22.5636 207.762 23.525 208.483 24.271C209.203 24.9881 210.141 25.3479 211.297 25.3479C212.421 25.3479 213.353 24.9828 214.087 24.25C214.821 23.5171 215.191 22.5636 215.191 21.3868Z" fill="white"/>
<path d="M21.0426 36.0624V20.9377H14.0284V36.0624V43.0416H21.0426H36.243V36.0624H21.0426Z" fill="white"/>
<path d="M7.01419 20.9377H0V50.0208V57H7.01419H36.243V50.0208H7.01419V20.9377Z" fill="white"/>
<path d="M43.2573 50.0207V57H50.2715H57.2856V50.0207V43.0415H50.2715V50.0207H43.2573Z" fill="white"/>
<path d="M36.243 20.9377V36.0624H43.2572V20.9377V13.9585H36.243H21.0425V20.9377H36.243Z" fill="white"/>
<path d="M50.2714 0H21.0425V6.97922H50.2714V36.0623H57.2856V6.97922V0H50.2714Z" fill="white"/>
<path d="M21.0426 6.97916H14.0284V13.9584H21.0426V6.97916Z" fill="white"/>
<path d="M14.0283 13.9585H7.01416V20.9377H14.0283V13.9585Z" fill="white"/>
<path d="M14.0284 6.97922V0H7.01419H0V6.97922V13.9584H7.01419V6.97922H14.0284Z" fill="white"/>
<path d="M43.2572 43.0415H36.243V50.0207H43.2572V43.0415Z" fill="white"/>
<path d="M50.2714 36.0623H43.2573V43.0416H50.2714V36.0623Z" fill="white"/>
</svg>
