<svg width="20" height="21" viewBox="0 0 20 21" fill="none" xmlns="http://www.w3.org/2000/svg">
<path d="M0.416966 4.49926C3.16189 6.82391 7.97837 10.9137 9.394 12.1889C9.58404 12.361 9.78786 12.4485 9.99947 12.4485C10.2106 12.4485 10.4141 12.3618 10.6037 12.1905C12.0206 10.9141 16.837 6.82391 19.582 4.49926C19.7529 4.3548 19.779 4.1009 19.6406 3.9243C19.3208 3.51621 18.8439 3.28223 18.3328 3.28223H1.66615C1.15509 3.28223 0.678177 3.51621 0.358372 3.92434C0.220013 4.1009 0.246067 4.3548 0.416966 4.49926Z" fill="black"/>
<path d="M19.7586 5.75906C19.6109 5.69031 19.4371 5.71429 19.3142 5.81929C17.5166 7.34312 15.148 9.35648 13.3617 10.8929C13.2677 10.9735 13.2148 11.0919 13.2169 11.216C13.2189 11.3397 13.2763 11.4565 13.3731 11.5338C15.0329 12.8631 17.5341 14.6918 19.3403 15.9914C19.4123 16.0435 19.4978 16.0699 19.5836 16.0699C19.6487 16.0699 19.7138 16.0549 19.7737 16.0239C19.9128 15.9527 20.0003 15.8095 20.0003 15.6532V6.13707C20.0003 5.97472 19.9059 5.82703 19.7586 5.75906Z" fill="black"/>
<path d="M0.66 15.9915C2.46664 14.6919 4.96828 12.8633 6.62762 11.5339C6.72445 11.4566 6.78184 11.3398 6.78387 11.2161C6.7859 11.092 6.73301 10.9736 6.63902 10.8931C4.8527 9.35661 2.48371 7.34325 0.686055 5.81942C0.562344 5.71442 0.388203 5.69126 0.241719 5.75919C0.0944141 5.82716 0 5.97485 0 6.1372V15.6534C0 15.8097 0.0875 15.9529 0.226641 16.0241C0.286445 16.055 0.351562 16.0701 0.41668 16.0701C0.502539 16.0701 0.587969 16.0436 0.66 15.9915Z" fill="black"/>
<path d="M19.4894 17.1249C17.745 15.8769 14.5317 13.5503 12.6136 11.9934C12.4573 11.8661 12.2311 11.8702 12.0773 12.0028C11.7009 12.3312 11.386 12.6079 11.1626 12.8089C10.4765 13.4282 9.52435 13.4282 8.8367 12.808C8.61412 12.6075 8.2992 12.3299 7.92279 12.0028C7.77022 11.8693 7.54357 11.8652 7.38689 11.9934C5.47525 13.5449 2.2583 15.8744 0.511074 17.1249C0.413808 17.1949 0.351152 17.3027 0.338964 17.4219C0.327168 17.5411 0.366621 17.6595 0.448418 17.7474C0.763808 18.0872 1.20814 18.2821 1.66674 18.2821H18.3334C18.792 18.2821 19.2359 18.0872 19.5521 17.7474C19.6335 17.6599 19.6733 17.5415 19.6615 17.4223C19.6493 17.3031 19.5867 17.1949 19.4894 17.1249Z" fill="black"/>
</svg>
