<svg width="20" height="21" viewBox="0 0 20 21" fill="none" xmlns="http://www.w3.org/2000/svg">
<g clip-path="url(#clip0)">
<path d="M18.3952 13.3042C17.1707 13.3042 15.9684 13.1127 14.8291 12.7362C14.2708 12.5458 13.5845 12.7205 13.2438 13.0704L10.995 14.768C8.38703 13.3759 6.78057 11.77 5.40745 9.18157L7.0551 6.99136C7.48318 6.56386 7.63672 5.93938 7.45276 5.35344C7.07464 4.20813 6.88255 3.00641 6.88255 1.78141C6.8826 0.896462 6.16266 0.176514 5.27776 0.176514H1.60484C0.719948 0.176514 0 0.896462 0 1.78136C0 11.9246 8.25198 20.1765 18.3952 20.1765C19.2801 20.1765 20.0001 19.4566 20.0001 18.5717V14.909C20 14.0242 19.2801 13.3042 18.3952 13.3042Z" fill="black"/>
</g>
<defs>
<clipPath id="clip0">
<rect y="0.176514" width="20" height="20" fill="white"/>
</clipPath>
</defs>
</svg>
