<svg width="20" height="21" viewBox="0 0 20 21" fill="none" xmlns="http://www.w3.org/2000/svg">
<g clip-path="url(#clip0)">
<path d="M9.99969 0.176514C6.32375 0.176514 3.33301 3.16726 3.33301 6.84319C3.33301 7.94671 3.60891 9.04085 4.1334 10.0113L9.63512 19.9617C9.70836 20.0943 9.84793 20.1765 9.99969 20.1765C10.1514 20.1765 10.291 20.0943 10.3643 19.9617L15.868 10.008C16.3905 9.04085 16.6664 7.94667 16.6664 6.84315C16.6664 3.16726 13.6756 0.176514 9.99969 0.176514ZM9.99969 10.1765C8.16172 10.1765 6.66637 8.68116 6.66637 6.84319C6.66637 5.00523 8.16172 3.50987 9.99969 3.50987C11.8377 3.50987 13.333 5.00523 13.333 6.84319C13.333 8.68116 11.8377 10.1765 9.99969 10.1765Z" fill="black"/>
</g>
<defs>
<clipPath id="clip0">
<rect y="0.176514" width="20" height="20" fill="white"/>
</clipPath>
</defs>
</svg>
