<svg width="40" height="41" viewBox="0 0 40 41" fill="none" xmlns="http://www.w3.org/2000/svg">
<path d="M20 0.765137C8.95468 0.765137 0 9.71941 0 20.7651C0 31.8109 8.95468 40.7651 20 40.7651C31.0453 40.7651 40 31.8109 40 20.7651C40 9.71941 31.0453 0.765137 20 0.765137ZM30.1451 22.9282C31.0772 23.8387 32.0634 24.6956 32.9003 25.7002C33.271 26.1446 33.6205 26.6041 33.8864 27.1209C34.2662 27.8579 33.9233 28.6661 33.2636 28.7099L29.1662 28.7091C28.108 28.7966 27.2659 28.3698 26.5559 27.6464C25.9892 27.0698 25.4633 26.4539 24.9174 25.8577C24.6944 25.613 24.4595 25.3826 24.1796 25.2014C23.6211 24.838 23.1358 24.9493 22.8158 25.5328C22.4896 26.1266 22.4151 26.7846 22.384 27.4454C22.3394 28.4116 22.0481 28.6641 21.0787 28.7095C19.0073 28.8065 17.0418 28.4922 15.2151 27.4479C13.6037 26.5268 12.3564 25.2267 11.2696 23.7548C9.15315 20.8854 7.53228 17.7362 6.07591 14.4965C5.74813 13.7669 5.98793 13.3765 6.79284 13.3614C8.13013 13.3356 9.46742 13.3388 10.8047 13.3601C11.349 13.3687 11.7091 13.6801 11.9182 14.1937C12.6408 15.9717 13.5268 17.6633 14.6369 19.2322C14.9328 19.65 15.2348 20.0666 15.6649 20.3617C16.1395 20.6874 16.5013 20.5798 16.7251 20.0498C16.8683 19.7131 16.9301 19.353 16.9612 18.992C17.0676 17.7558 17.0803 16.52 16.8962 15.2887C16.7816 14.5182 16.3482 14.0206 15.5802 13.8749C15.189 13.8008 15.2462 13.656 15.4365 13.4326C15.7668 13.0463 16.0761 12.8073 16.6944 12.8073L21.3238 12.8065C22.0534 12.9497 22.2171 13.2771 22.3161 14.012L22.3202 19.1565C22.3116 19.4409 22.463 20.2839 22.9737 20.4701C23.3829 20.6051 23.653 20.277 23.8977 20.0179C25.0079 18.8398 25.7989 17.4493 26.5072 16.0101C26.8198 15.3755 27.0895 14.7187 27.3514 14.0607C27.5462 13.5741 27.849 13.3348 28.3982 13.3429L32.8561 13.3483C32.9874 13.3483 33.1208 13.3495 33.2509 13.372C34.0023 13.5005 34.2081 13.8238 33.9757 14.5566C33.6098 15.7082 32.899 16.6673 32.2042 17.629C31.4594 18.6585 30.6652 19.6521 29.9278 20.6862C29.2501 21.6314 29.3037 22.1073 30.1451 22.9282Z" fill="white"/>
</svg>
