<svg width="41" height="41" viewBox="0 0 41 41" fill="none" xmlns="http://www.w3.org/2000/svg">
<path d="M20.0188 0.807861C8.97479 0.807861 0.0187988 9.76385 0.0187988 20.8079C0.0187988 31.8519 8.97479 40.8079 20.0188 40.8079C31.0628 40.8079 40.0188 31.8519 40.0188 20.8079C40.0188 9.76385 31.0628 0.807861 20.0188 0.807861ZM20.4427 32.4525C20.4424 32.4525 20.443 32.4525 20.4427 32.4525H20.4378C18.4343 32.4515 16.4656 31.9492 14.7173 30.9958L8.37177 32.66L10.0701 26.4588C9.0224 24.6442 8.47125 22.5855 8.47217 20.4764C8.47491 13.8785 13.8448 8.5108 20.4427 8.5108C23.6446 8.51202 26.6503 9.75836 28.9101 12.02C31.1702 14.282 32.4141 17.2886 32.4129 20.4859C32.4102 27.0841 27.0397 32.4525 20.4427 32.4525Z" fill="#64B161"/>
<path d="M20.4467 10.532C14.9587 10.532 10.4955 14.9933 10.493 20.4774C10.4924 22.3566 11.0186 24.1868 12.0143 25.7703L12.2509 26.1466L11.2456 29.817L15.0112 28.8294L15.3746 29.0449C16.902 29.9512 18.6531 30.4307 20.4384 30.4313H20.4424C25.9261 30.4313 30.3893 25.9696 30.3917 20.4853C30.3926 17.8275 29.3587 15.3287 27.4803 13.4489C25.602 11.569 23.1038 10.5329 20.4467 10.532ZM26.2987 24.7535C26.0494 25.4517 24.8546 26.0892 24.28 26.1753C23.7645 26.2522 23.1127 26.2842 22.3961 26.0569C21.9615 25.9189 21.4046 25.7349 20.6908 25.427C17.6906 24.1318 15.7311 21.1118 15.5815 20.9122C15.432 20.7126 14.3602 19.2908 14.3602 17.819C14.3602 16.3474 15.1329 15.6238 15.407 15.3248C15.6813 15.0254 16.0054 14.9506 16.2047 14.9506C16.404 14.9506 16.6036 14.9525 16.7778 14.961C16.9615 14.9702 17.2081 14.8911 17.4507 15.4743C17.7001 16.0731 18.2982 17.5446 18.373 17.6942C18.4478 17.844 18.4975 18.0186 18.398 18.2181C18.2982 18.4177 17.9668 18.8483 17.6503 19.2408C17.5176 19.4053 17.3445 19.5518 17.5191 19.8511C17.6934 20.1502 18.2939 21.1295 19.1829 21.9224C20.3255 22.941 21.2892 23.2566 21.5883 23.4064C21.8871 23.556 22.0616 23.5309 22.2362 23.3317C22.4105 23.1321 22.9839 22.4586 23.1832 22.1592C23.3824 21.8598 23.582 21.9099 23.8561 22.0096C24.1304 22.1091 25.6008 22.8327 25.8998 22.9822C26.1989 23.1321 26.3982 23.2068 26.473 23.3317C26.548 23.4565 26.548 24.0549 26.2987 24.7535Z" fill="#64B161"/>
</svg>
