<svg width="40" height="41" viewBox="0 0 40 41" fill="none" xmlns="http://www.w3.org/2000/svg">
<path d="M20 0.765137C8.95599 0.765137 0 9.72113 0 20.7651C0 31.8091 8.95599 40.7651 20 40.7651C31.044 40.7651 40 31.8091 40 20.7651C40 9.72113 31.044 0.765137 20 0.765137ZM20.4239 32.4097C20.4236 32.4097 20.4242 32.4097 20.4239 32.4097H20.419C18.4155 32.4088 16.4468 31.9065 14.6985 30.9531L8.35297 32.6172L10.0513 26.4161C9.0036 24.6015 8.45245 22.5428 8.45337 20.4337C8.45612 13.8358 13.826 8.46808 20.4239 8.46808C23.6258 8.4693 26.6315 9.71564 28.8913 11.9773C31.1514 14.2393 32.3953 17.2458 32.3941 20.4432C32.3914 27.0414 27.0209 32.4097 20.4239 32.4097Z" fill="white"/>
<path d="M20.4279 10.4893C14.9399 10.4893 10.4767 14.9506 10.4742 20.4346C10.4736 22.3139 10.9998 24.144 11.9955 25.7276L12.2321 26.1039L11.2268 29.7742L14.9924 28.7867L15.3558 29.0021C16.8832 29.9085 18.6343 30.3879 20.4196 30.3885H20.4236C25.9073 30.3885 30.3705 25.9269 30.3729 20.4426C30.3738 17.7848 29.3399 15.286 27.4615 13.4061C25.5832 11.5262 23.085 10.4902 20.4279 10.4893ZM26.2799 24.7108C26.0306 25.409 24.8358 26.0465 24.2612 26.1326C23.7457 26.2095 23.0939 26.2415 22.3773 26.0142C21.9427 25.8762 21.3858 25.6922 20.672 25.3843C17.6718 24.0891 15.7123 21.0691 15.5627 20.8695C15.4132 20.6699 14.3414 19.2481 14.3414 17.7762C14.3414 16.3047 15.1141 15.5811 15.3882 15.282C15.6625 14.9827 15.9866 14.9079 16.1859 14.9079C16.3852 14.9079 16.5848 14.9097 16.759 14.9183C16.9427 14.9274 17.1893 14.8484 17.4319 15.4316C17.6813 16.0303 18.2794 17.5019 18.3542 17.6514C18.429 17.8013 18.4787 17.9758 18.3792 18.1754C18.2794 18.375 17.948 18.8056 17.6315 19.1981C17.4988 19.3625 17.3257 19.509 17.5003 19.8084C17.6746 20.1075 18.2751 21.0868 19.1641 21.8796C20.3067 22.8983 21.2704 23.2139 21.5695 23.3637C21.8683 23.5132 22.0428 23.4882 22.2174 23.2889C22.3917 23.0894 22.9651 22.4158 23.1644 22.1165C23.3636 21.8171 23.5632 21.8671 23.8373 21.9669C24.1116 22.0664 25.582 22.79 25.881 22.9395C26.1801 23.0894 26.3794 23.1641 26.4542 23.2889C26.5292 23.4138 26.5292 24.0122 26.2799 24.7108Z" fill="white"/>
</svg>
