<svg width="40" height="41" viewBox="0 0 40 41" fill="none" xmlns="http://www.w3.org/2000/svg">
<path d="M17.5088 24.512L24.0145 20.765L17.5088 17.0181V24.512Z" fill="white"/>
<path d="M20 0.765137C8.95599 0.765137 0 9.72113 0 20.7651C0 31.8091 8.95599 40.7651 20 40.7651C31.044 40.7651 40 31.8091 40 20.7651C40 9.72113 31.044 0.765137 20 0.765137ZM32.4969 20.7856C32.4969 20.7856 32.4969 24.8417 31.9824 26.7975C31.694 27.8681 30.8499 28.7122 29.7794 29.0003C27.8235 29.5151 20 29.5151 20 29.5151C20 29.5151 12.197 29.5151 10.2206 28.9799C9.15009 28.6918 8.30597 27.8474 8.01758 26.7768C7.50275 24.8417 7.50275 20.7651 7.50275 20.7651C7.50275 20.7651 7.50275 16.7094 8.01758 14.7535C8.30566 13.6829 9.17053 12.8181 10.2206 12.53C12.1765 12.0151 20 12.0151 20 12.0151C20 12.0151 27.8235 12.0151 29.7794 12.5504C30.8499 12.8385 31.694 13.6829 31.9824 14.7535C32.5177 16.7094 32.4969 20.7856 32.4969 20.7856Z" fill="white"/>
</svg>
